<svg width="512" height="512" viewBox="0 0 512 512" fill="none" xmlns="http://www.w3.org/2000/svg">
  <rect width="512" height="512" rx="112" fill="#0B1117"/>
  <path d="M256 48L404 104V218C404 323 344 417 256 464C168 417 108 323 108 218V104L256 48Z" fill="url(#shield)" stroke="#D4AF37" stroke-width="18"/>
  <path d="M256 84L361 124V218C361 299 319 372 256 413C193 372 151 299 151 218V124L256 84Z" fill="#111827" stroke="#2A3A4A" stroke-width="10"/>
  <path d="M256 112L303 201H209L256 112Z" fill="#D4AF37"/>
  <path d="M206 218H306L294 255H218L206 218Z" fill="#F6D36B"/>
  <path d="M220 275H292V333C292 353 276 369 256 369C236 369 220 353 220 333V275Z" fill="#E8EEF5"/>
  <path d="M234 275H278V330C278 342 268 352 256 352C244 352 234 342 234 330V275Z" fill="#8FA3B8"/>
  <path d="M170 207H342" stroke="#D4AF37" stroke-width="18" stroke-linecap="round"/>
  <path d="M183 244H329" stroke="#38BDF8" stroke-width="10" stroke-linecap="round"/>
  <path d="M187 132L228 183H185L187 132Z" fill="#38BDF8" opacity="0.9"/>
  <path d="M325 132L284 183H327L325 132Z" fill="#38BDF8" opacity="0.9"/>
  <text x="256" y="438" text-anchor="middle" fill="#D4AF37" font-family="Arial, Helvetica, sans-serif" font-size="46" font-weight="800" letter-spacing="3">KNIGHTS</text>
  <defs>
    <linearGradient id="shield" x1="108" y1="48" x2="404" y2="464" gradientUnits="userSpaceOnUse">
      <stop stop-color="#1F2937"/>
      <stop offset="0.5" stop-color="#0F172A"/>
      <stop offset="1" stop-color="#060A0F"/>
    </linearGradient>
  </defs>
</svg>
